<svg width="120" height="120" viewBox="0 0 120 120" fill="none" xmlns="http://www.w3.org/2000/svg">
<path d="M16.3892 107.391L6.81818 0H112.023L102.439 107.374L59.3565 119.318L16.3892 107.391Z" fill="#1572B6"/>
<path d="M59.4205 110.19L94.2358 100.538L102.426 8.78267H59.4205V110.19Z" fill="#33A9DC"/>
<path d="M59.4205 47.6889H76.8494L78.0511 34.2017H59.4205V21.0298H92.446L92.1307 24.5625L88.8963 60.8608H59.4205V47.6889V47.6889Z" fill="white"/>
<path d="M59.5014 81.8949L59.4418 81.9119L44.7741 77.9489L43.8366 67.4446H30.6136L32.4588 88.125L59.4375 95.6165L59.5014 95.5994V81.8949V81.8949Z" fill="#EBEBEB"/>
<path d="M75.7287 60.3025L74.1435 77.9403L59.4545 81.9034V95.6079L86.4545 88.125L86.6548 85.9006L88.9432 60.3025H75.7287V60.3025Z" fill="white"/>
<path d="M59.4673 21.0298V34.2017H27.652L27.3878 31.2401L26.7869 24.5625L26.4716 21.0298H59.4673V21.0298ZM59.4204 47.6889V60.8608H44.9361L44.6719 57.8991L44.0753 51.2216L43.7599 47.6889H59.4204V47.6889Z" fill="#EBEBEB"/>
</svg>
