<svg width="64" height="64" viewBox="0 0 64 64" fill="none" xmlns="http://www.w3.org/2000/svg">
<g clip-path="url(#clip0_3_27)">
<path d="M32 0.260159C27.8311 0.260159 23.7029 1.10132 19.8513 2.73562C15.9997 4.36992 12.5001 6.76535 9.55217 9.78514C3.59863 15.8839 0.253967 24.1556 0.253967 32.7805C0.253967 47.1545 9.36508 59.3496 21.9683 63.6748C23.5556 63.935 24.0635 62.9268 24.0635 62.0488V56.5528C15.2698 58.5041 13.3968 52.1951 13.3968 52.1951C11.9365 48.4228 9.87302 47.4146 9.87302 47.4146C6.98413 45.3984 10.0952 45.4634 10.0952 45.4634C13.2698 45.6911 14.9524 48.813 14.9524 48.813C17.7143 53.7561 22.381 52.2927 24.1905 51.5122C24.4762 49.3984 25.3016 47.9675 26.1905 47.1545C19.1429 46.3415 11.746 43.5447 11.746 31.1545C11.746 27.5447 12.9524 24.6504 15.0159 22.3415C14.6984 21.5285 13.5873 18.1463 15.3333 13.7561C15.3333 13.7561 18 12.878 24.0635 17.0732C26.5714 16.3577 29.3016 16 32 16C34.6984 16 37.4286 16.3577 39.9365 17.0732C46 12.878 48.6667 13.7561 48.6667 13.7561C50.4127 18.1463 49.3016 21.5285 48.9841 22.3415C51.0476 24.6504 52.254 27.5447 52.254 31.1545C52.254 43.5772 44.8254 46.3089 37.746 47.1219C38.8889 48.1301 39.9365 50.1138 39.9365 53.1382V62.0488C39.9365 62.9268 40.4444 63.9675 42.0635 63.6748C54.6667 59.3171 63.746 47.1545 63.746 32.7805C63.746 28.5099 62.9249 24.281 61.3295 20.3355C59.7341 16.3899 57.3957 12.8049 54.4478 9.78514C51.4999 6.76535 48.0003 4.36992 44.1487 2.73562C40.2971 1.10132 36.1689 0.260159 32 0.260159Z" fill="#202020"/>
</g>
<defs>
<clipPath id="clip0_3_27">
<rect width="64" height="64" fill="white"/>
</clipPath>
</defs>
</svg>
