<svg width="120" height="120" viewBox="0 0 120 120" fill="none" xmlns="http://www.w3.org/2000/svg">
<path d="M16.3935 107.391L6.81818 0H112.031L102.443 107.374L59.3608 119.318L16.3935 107.391Z" fill="#E44F26"/>
<path d="M59.4247 110.19L94.2401 100.538L102.43 8.78267H59.4247V110.19Z" fill="#F1662A"/>
<path d="M59.4247 48.6094H41.9957L40.794 35.1222H59.4247V21.9503H26.3991L26.7145 25.4872L29.9489 61.7813H59.4247V48.6094ZM59.4247 82.8153L59.3651 82.8324L44.6974 78.8736L43.7599 68.3693H30.5369L32.3821 89.0455L59.3651 96.5369L59.4247 96.5199V82.8153Z" fill="#EBEBEB"/>
<path d="M59.3778 48.6094V61.7812H75.5966L74.071 78.8651L59.3778 82.8281V96.5327L86.3821 89.0455L86.5781 86.821L89.6719 52.1463L89.9957 48.6094H59.3778ZM59.3778 21.9503V35.1222H91.1932L91.4574 32.1648L92.0582 25.4872L92.3736 21.9503H59.3778Z" fill="white"/>
</svg>
