<svg width="64" height="64" viewBox="0 0 64 64" fill="none" xmlns="http://www.w3.org/2000/svg">
<path fill-rule="evenodd" clip-rule="evenodd" d="M32 64C49.6731 64 64 49.6731 64 32C64 14.3269 49.6731 0 32 0C14.3269 0 0 14.3269 0 32C0 49.6731 14.3269 64 32 64ZM16.3133 44.355C16.9656 45.0072 17.75 45.3333 18.6667 45.3333H45.3333C46.25 45.3333 47.035 45.0072 47.6883 44.355C48.3406 43.7017 48.6667 42.9167 48.6667 42V22C48.6667 21.0833 48.3406 20.2989 47.6883 19.6467C47.035 18.9933 46.25 18.6667 45.3333 18.6667H18.6667C17.75 18.6667 16.9656 18.9933 16.3133 19.6467C15.66 20.2989 15.3333 21.0833 15.3333 22V42C15.3333 42.9167 15.66 43.7017 16.3133 44.355ZM32 33.6667L18.6667 25.3333V42H45.3333V25.3333L32 33.6667ZM45.3333 22H18.6667L32 30.3333L45.3333 22Z" fill="#202020"/>
</svg>
