<svg width="120" height="120" viewBox="0 0 120 120" fill="none" xmlns="http://www.w3.org/2000/svg">
<g clip-path="url(#clip0_4_95)">
<path d="M100.078 0H19.9219C8.91933 0 0 9.13339 0 20.4V99.408C0 110.675 8.91933 119.808 19.9219 119.808H100.078C111.081 119.808 120 110.675 120 99.408V20.4C120 9.13339 111.081 0 100.078 0Z" fill="#001E36"/>
<path d="M27.0206 84.0168V31.3426C27.0206 30.9586 27.1819 30.7656 27.5039 30.7656L28.0134 30.7642L28.8844 30.7546L30.0947 30.7301L34.1494 30.6422L38.497 30.5597C40.0261 30.5328 41.542 30.5184 43.0448 30.5184C47.123 30.5184 50.5575 31.0406 53.3489 32.0846C55.8669 32.9568 58.1632 34.3929 60.0708 36.2885C61.6879 37.9317 62.9376 39.9146 63.7336 42.1003C64.4866 44.2273 64.8682 46.4734 64.8609 48.7358C64.8609 53.1331 63.8677 56.76 61.882 59.617C59.9399 62.4042 57.231 64.5358 54.1008 65.7398L53.8322 65.8406C50.5636 67.0891 46.9439 67.5403 42.9741 67.5686L42.3572 67.5706L41.4417 67.5658L40.98 67.559L40.4653 67.5466L40.155 67.5341L39.9666 67.524L39.503 67.5067L38.9363 67.4947L38.0831 67.4885L37.8933 67.488V83.9342C37.9074 84.0351 37.8984 84.1378 37.867 84.2345C37.8355 84.3311 37.7825 84.4189 37.7122 84.4909C37.6419 84.5629 37.5562 84.6172 37.4618 84.6494C37.3674 84.6815 37.267 84.6908 37.1686 84.6763H27.5845C27.2081 84.6763 27.0206 84.4574 27.0206 84.0168ZM37.8938 40.6574V57.8376C38.5362 57.8907 39.1805 57.9182 39.825 57.9202H42.4819C44.3136 57.9139 46.1348 57.6346 47.888 57.0912L48.2377 56.9794C49.8326 56.4942 51.2578 55.5499 52.3434 54.2587C53.3522 53.0405 53.8748 51.3619 53.9109 49.2226L53.9133 48.983C53.9555 47.3885 53.5505 45.815 52.7456 44.4494C51.8998 43.1287 50.6771 42.1069 49.2441 41.5229C47.3728 40.7781 45.374 40.4278 43.3673 40.4928L42.3464 40.4957L41.7023 40.5014L41.0878 40.5096L40.2206 40.5269L39.5878 40.5451L39.2592 40.5576L38.82 40.5787L38.4459 40.6022L38.2327 40.6195L38.0484 40.6378L37.9673 40.6474L37.8938 40.6574ZM95.9859 54.7138C94.5817 53.9748 93.0921 53.4197 91.5525 53.0616L91.1963 52.9829C89.5024 52.5849 87.7733 52.3656 86.0358 52.3286L85.6017 52.3234C84.5832 52.2951 83.5661 52.4201 82.583 52.6944C81.9571 52.8369 81.4007 53.2018 81.0127 53.7245C80.7503 54.1426 80.6107 54.6291 80.6105 55.1261C80.6252 55.6081 80.7949 56.0716 81.0933 56.4446C81.5205 56.9563 82.0342 57.3851 82.6097 57.7104L82.7841 57.805C83.9318 58.4378 85.1144 59.0019 86.3259 59.4946C89.0276 60.4207 91.6091 61.6802 94.0134 63.2453C95.6516 64.304 97.0072 65.7629 97.9584 67.4909C98.7581 69.1269 99.1586 70.9369 99.1256 72.7661C99.1738 75.1818 98.4996 77.5549 97.1934 79.5672C95.7951 81.6096 93.853 83.1974 91.5984 84.1416C89.2374 85.2043 86.3377 85.753 82.8998 85.789L82.5427 85.7909C80.4115 85.813 78.2832 85.622 76.1883 85.2206L75.7402 85.1314C73.9763 84.8001 72.2593 84.2463 70.6284 83.4826C70.4645 83.3959 70.326 83.2663 70.2271 83.1069C70.1281 82.9475 70.0722 82.7641 70.065 82.5754V73.5907C70.0554 73.5035 70.069 73.4153 70.1045 73.3354C70.14 73.2555 70.196 73.187 70.2666 73.1371C70.3357 73.0971 70.4151 73.0797 70.4941 73.087C70.5732 73.0944 70.6482 73.1263 70.7091 73.1784C72.635 74.3413 74.7262 75.1896 76.9073 75.6926C78.83 76.1862 80.8021 76.4491 82.7841 76.476C84.6619 76.476 86.0438 76.2283 86.9297 75.7339C87.3297 75.5464 87.6681 75.2442 87.9039 74.8638C88.1397 74.4834 88.2627 74.0412 88.2581 73.5907C88.2581 72.8774 87.8555 72.1901 87.0506 71.5301C86.7131 71.2536 86.2289 70.9526 85.5989 70.6277L85.2975 70.476L84.9759 70.321L84.8072 70.2422L84.4538 70.0819C84.3924 70.0545 84.331 70.0273 84.2695 70.0003L83.8852 69.8352L83.685 69.7512L83.2697 69.5808L83.0541 69.4944L82.6074 69.3182L82.14 69.1392C79.6123 68.2383 77.2156 66.9905 75.0155 65.4298C73.442 64.3091 72.1464 62.8271 71.2322 61.1021C70.4405 59.4778 70.0403 57.6829 70.065 55.8677C70.0605 53.6866 70.6455 51.5469 71.7553 49.6853C73.0209 47.6357 74.8378 46.0037 76.988 44.987C79.3491 43.7789 82.3003 43.1741 85.8427 43.1731C87.9174 43.1561 89.9901 43.3077 92.0414 43.6267C93.5268 43.8196 94.9789 44.2218 96.3567 44.8219C96.5784 44.8872 96.757 45.0547 96.8395 45.2755C96.8944 45.4766 96.9211 45.6845 96.9202 45.8938V54.2194C96.9319 54.4162 96.8395 54.6048 96.6788 54.7138C96.5711 54.7686 96.4526 54.7971 96.3324 54.7971C96.2122 54.7971 96.0936 54.7686 95.9859 54.7138Z" fill="#31A8FF"/>
</g>
<defs>
<clipPath id="clip0_4_95">
<rect width="120" height="120" fill="white"/>
</clipPath>
</defs>
</svg>
