<svg width="64" height="64" viewBox="0 0 64 64" fill="none" xmlns="http://www.w3.org/2000/svg">
<path d="M32 0.253967C14.4762 0.253967 0.253967 14.4762 0.253967 32C0.253967 49.5238 14.4762 63.746 32 63.746C49.5238 63.746 63.746 49.5238 63.746 32C63.746 14.4762 49.5238 0.253967 32 0.253967ZM46.7302 21.8413C46.254 26.8571 44.1905 39.0476 43.1429 44.6667C42.6984 47.0476 41.8095 47.8413 40.9841 47.9365C39.1429 48.0952 37.746 46.7302 35.9683 45.5556C33.1746 43.7143 31.5873 42.5714 28.8889 40.7937C25.746 38.7302 27.7778 37.5873 29.5873 35.746C30.0635 35.2698 38.1905 27.873 38.3492 27.2063C38.3713 27.1054 38.3683 27.0005 38.3407 26.901C38.313 26.8014 38.2614 26.7101 38.1905 26.6349C38 26.4762 37.746 26.5397 37.5238 26.5714C37.2381 26.6349 32.7937 29.5873 24.127 35.4286C22.8571 36.2857 21.7143 36.7302 20.6984 36.6984C19.5556 36.6667 17.3968 36.0635 15.7778 35.5238C13.7778 34.8889 12.2222 34.5397 12.3492 33.4286C12.4127 32.8571 13.2063 32.2857 14.6984 31.6825C23.9683 27.6508 30.127 24.9841 33.2063 23.7143C42.0317 20.0317 43.8413 19.3968 45.0476 19.3968C45.3016 19.3968 45.9048 19.4603 46.2857 19.7778C46.6032 20.0317 46.6984 20.381 46.7302 20.6349C46.6984 20.8254 46.7619 21.3968 46.7302 21.8413Z" fill="#202020"/>
</svg>
